<svg id="Layer_1" data-name="Layer 1" xmlns="http://www.w3.org/2000/svg" viewBox="0 0 1200 500"><title>VO CAFE DOHA [REGULAR]</title><path d="M65.07,106.86H87.12c20.56,0,34.58,9.8,34.58,37.57S107.41,182,87.12,182H65.07V106.86Zm17.15,14.43v46.14h3.54c11.71,0,18.38-4.49,18.38-20.82v-4c0-16.74-6.26-21.37-18.38-21.37Z"/><path d="M129.05,144.43c0-26.95,14.43-38.52,30.76-38.52s30.76,11.43,30.76,38.52S176.14,183,159.81,183,129.05,171.38,129.05,144.43Zm17.56,1.9c0,16.61,5.85,22.46,13.2,22.46s13.2-5.85,13.2-22.46v-3.26c0-17.15-5.44-23-13.2-23s-13.2,5.86-13.2,23Z"/><path d="M198.6,106.86h17.15v28H235.9v-28h17.15V182H235.9V149.74H215.75V182H198.6Z"/><path d="M281.23,106.86h20.14l21,75.14H305.18l-3.94-14.84H280.41L276.6,182H260.26Zm15.92,45.74-6.8-24.91-6.26,24.91Z"/><path d="M552.53,217.17H567.3v147.1H554v1.61H662.55V310.62h-.81c-2.61,57.67-69.43,53.75-69.43,53.75l.41.1V290.12c13.06,0,30.84-1.91,33.35,31.85h.51V257.06h-.51c-3.31,31.15-20.69,31.35-33.35,31.35V217.48c25.12,0,52.55-4.93,63.2,48.83h.6V215.67h-104Z"/><path d="M555.64,217.17v-1.5H524.69v1.5h13.67V327.1c-.5,27.63-20.5,40.19-36,39.68-28.34-1-31.55-27.83-31.55-33.35V217.17H484.4v-1.5H431.65v1.5h14V320c0,27.53,14,48.83,54.86,48.83,27.43,0,40-22.8,39.69-41.69V217.17Z"/><path d="M421,304.09h11.46v-1.51H385.23v1.51h12.16v33.25c0,15.38-6.63,29.44-27.73,29.85-15.17.2-23.41-8.34-27.83-20.2-4.83-12.66-6.54-26-6.54-56.27,0-19.39,1.81-48.13,8.44-61,3.12-6,8.85-16.68,25.63-16.68,21.1.1,33.35,17.29,42.4,53.26h.5V211.15h-.5c-4.42,10.65-21.1,5.42-21.1,5.42-9.25-2.91-13.27-5-21.4-5-26,0-61.8,26.42-61.8,81,0,44.51,26.73,76.06,63.3,76.06,15.17,0,24.32-11,37.28-11,4,0,11.55,2.51,12.76,9h.3Z"/><path d="M266,290c0,10.65-.81,44.61-9.75,61.49-5.53,10.85-15.17,15.37-26.43,15.37s-20.9-4.62-26.42-15.37c-8.84-16.88-9.75-50.84-9.75-61.49s.81-43.61,9.75-61.09c5.32-10.85,15.17-15.37,26.42-15.37s21.1,4.52,26.43,15.37C265.16,246.41,266,279.37,266,290m28.53,0c0-47.12-33.86-78-64.71-78s-64.7,30.85-64.7,78,35,78.37,64.7,78.37S294.5,337.14,294.5,290"/><polygon points="151.22 215.77 151.22 217.17 165.19 217.17 130.82 331.92 89.43 217.17 101.38 217.17 101.38 215.77 51.45 215.77 51.45 217.17 65.11 217.17 121.38 366.68 122.18 366.68 166.9 217.17 178.85 217.17 178.85 215.77 151.22 215.77"/><path d="M769.81,267.32c-2.4-18.88-9.49-25.27-19.78-25.27-13.29,0-23.58,8.59-23.58,45.26v7.89c0,35.87,9.69,44.16,24.28,44.16,12.89,0,19.48-9.89,20.78-26.78l32.87,3.4c-2.6,34.07-25.28,51.75-53.65,51.75-33.27,0-59.25-18.88-59.25-77,0-56.65,27.88-77,58.75-77,25.28,0,47.16,12.89,52.75,47.66Z"/><path d="M851.64,215.67H892l41.86,150.16H899.49l-8-29.57H849.94l-7.49,29.57H809.87Zm32,91.32-13.49-49.76-12.59,49.86Z"/><path d="M950.25,215.67h84.92v29.57H984.62v32.67H1025v28.78H984.62v59.14H950.25Z"/><path d="M1052.05,215.67H1139V245h-52.56v29h39.47v28.27h-39.47v34.07h54.75v29.47h-89l-.1-150.16Z"/></svg>