<svg id="Layer_1" data-name="Layer 1" xmlns="http://www.w3.org/2000/svg" viewBox="0 0 800 1000">
<title>VO CAFE DOHA [STACKED]</title>
<path d="M595.92,392.36h14.77V539.45H597.43v1.61H706V485.8h-.81c-2.61,57.67-69.43,53.76-69.43,53.76l.4.1V465.3c13.07,0,30.85-1.91,33.36,31.85h.5v-64.9h-.5c-3.31,31.14-20.7,31.34-33.36,31.34V392.66c25.12,0,52.55-4.93,63.2,48.83h.61V390.85h-104Z"/><path d="M599,392.36v-1.51H568.09v1.51h13.67V502.28c-.51,27.63-20.5,40.19-36,39.69-28.33-1-31.54-27.84-31.54-33.36V392.36H527.8v-1.51H475.05v1.51h14V495.14c0,27.54,14,48.84,54.86,48.84,27.43,0,40-22.81,39.68-41.7V392.36Z"/><path d="M464.4,479.27h11.45v-1.51H428.63v1.51h12.16v33.26c0,15.37-6.64,29.44-27.74,29.84-15.17.2-23.41-8.34-27.83-20.2-4.82-12.66-6.53-26-6.53-56.26,0-19.4,1.81-48.13,8.44-61,3.12-6,8.84-16.68,25.62-16.68,21.1.1,33.36,17.28,42.4,53.25h.51V386.33h-.51c-4.42,10.65-21.1,5.42-21.1,5.42-9.24-2.91-13.26-5-21.4-5-26,0-61.79,26.43-61.79,81,0,44.52,26.73,76.07,63.3,76.07,15.17,0,24.32-11.06,37.28-11.06,4,0,11.55,2.51,12.76,9h.3Z"/><path d="M309.36,465.2c0,10.65-.8,44.61-9.74,61.49-5.53,10.86-15.18,15.38-26.43,15.38s-20.9-4.62-26.42-15.38c-8.85-16.88-9.75-50.84-9.75-61.49s.8-43.6,9.75-61.09c5.32-10.85,15.17-15.37,26.42-15.37s21.1,4.52,26.43,15.37c8.94,17.49,9.74,50.44,9.74,61.09m28.54,0c0-47.12-33.86-78-64.71-78s-64.71,30.85-64.71,78,35,78.37,64.71,78.37,64.71-31.24,64.71-78.37"/><polygon points="194.62 390.95 194.62 392.36 208.58 392.36 174.22 507.1 132.82 392.36 144.78 392.36 144.78 390.95 94.84 390.95 94.84 392.36 108.51 392.36 164.78 541.87 165.58 541.87 210.29 392.36 222.25 392.36 222.25 390.95 194.62 390.95"/><path d="M108.51,282h22c20.55,0,34.57,9.8,34.57,37.57s-14.29,37.57-34.57,37.57h-22V282Zm17.15,14.43v46.14h3.54c11.7,0,18.37-4.49,18.37-20.82v-3.95c0-16.74-6.26-21.37-18.37-21.37Z"/><path d="M172.48,319.52c0-26.95,14.43-38.52,30.77-38.52S234,292.43,234,319.52,219.58,358,203.25,358,172.48,346.47,172.48,319.52ZM190,321.43c0,16.6,5.86,22.45,13.21,22.45s13.2-5.85,13.2-22.45v-3.27c0-17.15-5.45-23-13.2-23S190,301,190,318.16Z"/><path d="M242,282h17.15v28h20.15V282h17.15v75.14H279.34V324.83H259.19v32.26H242Z"/><path d="M324.66,282h20.15l21,75.14H348.62l-3.95-14.84H323.85L320,357.09H303.7Zm15.93,45.74-6.81-24.91-6.26,24.91Z"/><path d="M185.62,628.76c-2.4-18.9-9.5-25.3-19.8-25.3-13.3,0-23.6,8.6-23.6,45.3v7.9c0,35.9,9.7,44.2,24.3,44.2,12.9,0,19.5-9.9,20.8-26.8l32.9,3.4c-2.6,34.1-25.3,51.8-53.7,51.8-33.3,0-59.3-18.9-59.3-77.1,0-56.7,27.9-77.1,58.8-77.1,25.3,0,47.2,12.9,52.8,47.7Z"/><path d="M267.52,577.06h40.4l41.9,150.3h-34.4l-8-29.6h-41.6l-7.5,29.6h-32.6Zm32,91.4L286,618.66l-12.6,49.9Z"/><path d="M366.22,577.06h85v29.6h-50.6v32.7H441v28.8h-40.4v59.2h-34.4Z"/>
<path d="M468.12,577.06h87v29.4h-52.6v29H542v28.3h-39.5v34.1h54.8v29.5h-89.1l-.1-150.3Z"/>
</svg>